<?xml version="1.0" encoding="iso-8859-1"?>
<!-- Uploaded to: SVG Repo, www.svgrepo.com, Generator: SVG Repo Mixer Tools -->
<!DOCTYPE svg PUBLIC "-//W3C//DTD SVG 1.1//EN" "http://www.w3.org/Graphics/SVG/1.1/DTD/svg11.dtd">
<svg fill="#000000" version="1.1" id="Capa_1" xmlns="http://www.w3.org/2000/svg" xmlns:xlink="http://www.w3.org/1999/xlink" 
	 width="800px" height="800px" viewBox="0 0 37.164 37.164"
	 xml:space="preserve">
<g>
	<path d="M37.164,12.23c0-1.386-1.124-2.509-2.509-2.509h-6.327l-4.046-8.396C23.832,0.39,22.707,0,21.77,0.446
		c-0.936,0.452-1.328,1.577-0.877,2.513l3.258,6.762H13.013l3.258-6.762c0.452-0.936,0.058-2.061-0.877-2.513
		C14.458,0,13.333,0.388,12.882,1.325L8.836,9.721H2.509C1.123,9.721,0,10.844,0,12.23c0,0.779,0.362,1.467,0.92,1.927l3.496,21.169
		c0.15,0.909,0.936,1.576,1.857,1.576h24.617c0.922,0,1.707-0.667,1.856-1.576l3.496-21.169
		C36.803,13.696,37.164,13.009,37.164,12.23z M29.295,33.139H7.868l-3.038-18.4h27.503L29.295,33.139z"/>
</g>
</svg>